<svg xmlns="http://www.w3.org/2000/svg" viewBox="-400 0 2500 1000"><defs><style>.cls-1{fill:#fff;}.cls-2{fill:#f2b966;}</style></defs><g id="Layer_2" data-name="Layer 2"><g id="Layer_2-2" data-name="Layer 2"><path class="cls-1" d="M45,15.23,39.19,21,35,16.86,30.1,12a12.83,12.83,0,1,0-.47,18.61A16.94,16.94,0,0,1,5.56,6.77l.29-.3.3-.32.32-.3.3-.29a21.05,21.05,0,0,1,29.13.59Z"/><path class="cls-1" d="M81.76,21.29a18.18,18.18,0,0,1-1.68,8.06c-4.59,9.79-16.46,11.28-18.27,11.46h0a20.83,20.83,0,0,1-7.74-4.91L45,26.82l5.8-5.8,4.16,4.17,4.92,4.91a12.82,12.82,0,0,0,21.9-8.81Z"/><circle class="cls-1" cx="81.87" cy="7.79" r="4.04"/><path class="cls-2" d="M83.27,36.36a21.48,21.48,0,0,1-18.75,5.23h0a24.23,24.23,0,0,1-2.87-.75l.2,0h0c1.81-.18,13.68-1.67,18.27-11.46a18.18,18.18,0,0,0,1.68-8.06v0h0v-.05a21.56,21.56,0,0,0-.15-2.2l3.18.82h0a3,3,0,0,0,1.5,0h0L89.87,19c0,.07,0,.18,0,.31v0C90,21.47,90,30,83.27,36.36Z"/><path class="cls-2" d="M59.86,12,50.77,21,45,26.82,35.9,35.9A21,21,0,0,1,5.56,6.77,16.94,16.94,0,0,0,29.63,30.56c.16-.15.32-.3.47-.46L39.19,21,45,15.23l9.08-9.08A21.05,21.05,0,0,1,73,.38"/></g></g></svg>