<?xml version="1.0" encoding="UTF-8"?>
<svg  fill ="#3D3D3D" data-name="Layer 2" xmlns="http://www.w3.org/2000/svg" viewBox="-1300 -500 20000 1000">
  <defs>
    <style>
      .cls-1 {
        fill: #040404;
      }

      .cls-2 {
        fill: #030303;
      }

      .cls-3 {
        fill: #ee5198;
      }

      .cls-4 {
        fill: #fdd00b;
      }

      .cls-5 {
        fill: #0879a1;
      }

      .cls-6 {
        fill: #18a8df;
      }

      .cls-7 {
        fill: #93c83f;
      }

      .cls-8 {
        fill: #24bab1;
      }
    </style>
  </defs>
  <g id="Layer_1-2" data-name="Layer 1">
    <path class="cls-8" d="M81.92,202.1c-27.04,.23-50.52-20.31-54.12-47.28-.73-5.44-.6-10.84,.12-16.26,.18-1.35,.84-2.25,1.79-3.11,14.84-13.35,29.69-26.69,44.47-40.1,1.27-1.15,2.21-1.22,3.72-.53,14.73,6.78,29.49,13.49,44.27,20.17,1.48,.67,2.46,1.6,3.19,3.04,2.72,5.36,5.48,10.69,8.35,15.98,.87,1.61,1.16,3.14,.82,4.92-2.43,12.44-4.86,24.88-7.21,37.33-.28,1.47-.83,2.69-1.73,3.84-11.05,14.29-25.67,21.49-43.68,22Z"/>
    <path class="cls-4" d="M175.93,54.41c1.32,7.14-1.73,11.91-7.17,16.43-13.58,11.28-26.68,23.15-39.9,34.86-1.76,1.56-3.13,1.71-5.26,.72-14.19-6.58-28.44-13.02-42.69-19.45-1.82-.82-3.09-1.86-3.92-3.79-2.23-5.16-4.68-10.23-7.13-15.28-.74-1.53-.95-2.98-.62-4.66,2.51-12.71,4.98-25.43,7.39-38.16,.25-1.31,.92-2.28,1.65-3.27C91.02,4.52,113.58-3.62,134.46,1.53c21.31,5.25,37.53,22.66,40.93,43.84,.49,3.03,.59,6.07,.54,9.05Z"/>
    <path class="cls-5" d="M203.43,103.82c-.04,16.96-9.17,30.45-22.83,36-1.26,.51-2.48,.81-3.88,.47-10.94-2.61-21.88-5.2-32.85-7.7-1.37-.31-2.14-.91-2.74-2.11-2.53-5.02-5.07-10.03-7.76-14.97-.82-1.51-.51-2.29,.69-3.34,14.83-12.91,29.64-25.84,44.38-38.86,1.41-1.24,2.46-1.01,3.81-.33,13.65,6.82,20.47,18,21.18,30.85Z"/>
    <path class="cls-6" d="M.09,94.07c1.44-14.88,8.81-25.6,22.53-31.88,1.62-.74,3.17-.83,4.96-.39,10.55,2.59,21.13,5.05,31.72,7.48,1.42,.33,2.38,.83,3,2.22,2.23,4.95,4.52,9.87,6.88,14.76,.59,1.23,.51,1.97-.54,2.92-14.62,13.14-29.2,26.32-43.76,39.53-1.03,.93-1.84,.89-3.06,.4C8.6,123.78-1.03,108.26,.09,94.07Z"/>
    <path class="cls-2" d="M406.02,118.38c0,6.49,0,12.98,0,19.47,0,3.81,.83,4.77,4.68,5.45q4.67,.82,4.46,5.43c-.23,5.04-.23,5.08-5.25,5.02-4.56-.06-9.22,.29-13.18-2.75-.96-.73-1.83,.19-2.65,.51-9.11,3.54-18.51,5.42-28.28,4.52-9.79-.91-15.46-6.08-17.53-15.61-1-4.62-1.03-9.3-.04-13.93,1.86-8.7,7.68-13.78,18.11-15.23,8.69-1.21,17.45-1.94,26.19-2.78,1.5-.14,2.17-.46,2.07-2.13-.21-3.61,.25-7.25-.74-10.81-1.26-4.51-4.21-7.13-8.8-7.87-1.59-.26-3.23-.36-4.84-.36-8.5-.03-17.01-.07-25.51,.03-1.92,.02-2.82-.35-2.57-2.47,.3-2.43-1.04-5.7,.57-7.11,1.37-1.2,4.55-.4,6.93-.4,7.83,0,15.67,.03,23.5,.03,2.4,0,4.77,.3,7.09,.84,9.74,2.26,14.99,8.86,15.65,19.53,.04,.57,.07,1.14,.07,1.72,0,6.3,0,12.6,0,18.9,.02,0,.04,0,.06,0Zm-11.47,11.38c0-3.72-.04-7.45,.02-11.17,.02-1.2-.24-1.7-1.59-1.56-7.69,.81-15.42,1.38-23.09,2.36-6.04,.77-9.42,4.04-10.29,9.52-.46,2.92-.47,5.9,.19,8.83,1.38,6.13,4.83,8.94,11.11,8.96,7.53,.03,14.77-1.47,21.86-3.96,1.45-.51,1.87-1.22,1.82-2.67-.1-3.43-.03-6.87-.03-10.31Z"/>
    <path class="cls-1" d="M281.2,121.43c-7.55,0-15.1,.06-22.65-.04-1.88-.03-2.48,.48-2.31,2.37,.33,3.62,.65,7.22,1.76,10.7,2.11,6.58,6.69,10.32,13.49,11.14,9.64,1.16,19.28,.37,28.9-.42,3.84-.32,3.83-.41,3.93,3.48,.12,5,.13,5.03-4.77,5.7-8.72,1.2-17.48,2.05-26.28,1.72-16.21-.61-23.79-6.99-26.96-22.93-2.39-12.03-2.35-24.11,1.31-35.96,3.78-12.26,13.32-19.39,26.13-19.81,5.48-.18,10.89,.08,16.1,1.99,10.13,3.72,14.49,11.77,16.28,21.73,1.09,6.06,.97,12.14,.54,18.26-.13,1.84-.9,2.13-2.5,2.11-7.65-.07-15.29-.03-22.94-.03Zm-5.33-9.03c3.92,0,7.84,.07,11.75-.03,2.64-.07,6.23,1.21,7.67-.53,1.53-1.85,.13-5.3-.18-8.02-1.12-9.82-5.29-14.93-13.53-16.44-3.67-.67-7.41-.6-11.09,.28-5.6,1.34-9.49,4.62-11.72,9.93-1.65,3.94-2.01,8.11-2.47,12.28-.21,1.94,.25,2.64,2.37,2.58,5.73-.15,11.46-.05,17.2-.05Z"/>
    <path class="cls-1" d="M461.05,88.33c-6-.45-12.01-1.43-17.98-.02-3.89,.92-7.13,2.73-8.52,6.8-2.08,6.09,.27,10.75,6.36,12.78,7.18,2.39,14.74,3.03,22.02,4.98,13.23,3.55,17.41,8.96,16.83,21.89-.52,11.59-6.73,18.29-18.8,20.6-9.08,1.73-18.09,.46-27.12-.27-2.85-.23-5.69-.71-8.55-.85-1.66-.08-2.27-.46-2.22-2.3,.23-8.09,.19-8.07,8.23-7.32,5.99,.56,11.99,1.05,17.99,1.45,4.13,.28,8.21-.17,12.11-1.64,4.9-1.85,7.08-5.35,6.98-10.95-.11-5.49-2.04-8.17-7.31-9.91-6.64-2.2-13.65-2.69-20.41-4.31-2.03-.49-4.06-1.04-6.04-1.73-8.38-2.94-11.53-7.2-12.03-16.11-.74-13.14,6.49-21.46,20.16-23.46,7.85-1.15,15.64-.02,23.45,.28,3.24,.12,6.48,.51,9.72,.69,1.22,.07,1.73,.5,1.58,1.73-.07,.56-.01,1.14-.01,1.72q0,6.82-6.71,6.27c-1.62-.13-3.24-.26-4.86-.32-1.62-.05-3.25-.01-4.87-.01Z"/>
    <path class="cls-1" d="M499.34,114.43c0-8.75-.07-16.01,.05-23.26,.03-1.89-.49-2.49-2.37-2.35-2.19,.16-4.4-.04-6.59,.07-1.43,.07-2.07-.25-1.97-1.85,.16-2.56-.85-5.9,.42-7.51,1.32-1.67,4.83-.65,7.34-.47,2.76,.2,3.25-.85,3.18-3.33-.17-6.01,0-12.03-.09-18.04-.02-1.6,.4-2.21,2.05-2.06,3,.28,6.94-1.25,8.76,.64,1.46,1.51,.45,5.43,.47,8.28,.03,3.53-.02,7.07,.02,10.6,.04,4.29-.57,3.69,3.86,3.72,5.93,.03,11.85,.09,17.77-.04,2-.04,2.73,.51,2.55,2.54-.21,2.36,.7,5.41-.48,6.92-1.26,1.63-4.46,.47-6.8,.51-4.97,.1-9.94,.1-14.91,0-1.67-.04-2.05,.5-2.03,2.09,.17,13.94-.23,27.88,.3,41.81,.08,2,.3,4,.61,5.97,.79,5.1,3.27,7.45,8.44,7.5,4.29,.04,8.59-.29,12.87-.64,1.73-.14,2.21,.3,2.4,2.05,.8,7.5,.88,7.5-6.53,8.27-3.42,.35-6.83,.73-10.29,.61-11.5-.4-17.06-5.54-18.43-16.92-1.07-8.86-.34-17.74-.6-25.11Z"/>
    <path class="cls-1" d="M591.54,116.75c.11,4,.21,8,.73,11.99,1.57,12.02,6.77,16.88,18.99,17.33,6.03,.22,12-.79,18-1.17,2.04-.13,2.56,.39,2.62,2.39,.19,6.97,.27,6.98-6.66,7.51-6.27,.48-12.47,1.79-18.82,1.26-15.31-1.28-22.18-7.11-25.13-22.14-2.45-12.49-2.37-25.02,.66-37.47,2.71-11.11,10.18-16.71,21.1-18.49,9.34-1.52,18.45,.34,27.62,1.58,.09,.01,.23,0,.28,.05,2.17,2.46,.44,5.27,.71,7.91,.17,1.73-1.18,1.35-2.17,1.27-6-.44-11.97-1.22-18-1.16-2.31,.02-4.56,.36-6.8,.88-8.32,1.93-11.13,8.18-12.32,15.7-.66,4.16-.75,8.36-.8,12.56Z"/>
    <path class="cls-3" d="M54.96,18.38c2.76,.04,7.34,1.41,11.61,3.98,1.36,.82,1.75,1.8,1.45,3.3-2.19,11.11-4.37,22.21-6.48,33.33-.34,1.78-1.16,2.05-2.76,1.66-9.53-2.3-19.07-4.57-28.63-6.76-1.76-.4-2.45-1.33-2.87-3-4.22-16.6,8.26-32.57,27.69-32.52Z"/>
    <path class="cls-7" d="M150.25,183.55c-4.33,.13-8.84-1.51-13.11-4.05-1.22-.72-1.75-1.53-1.45-3.01,2.22-11.31,4.38-22.63,6.55-33.96,.25-1.31,.89-1.68,2.21-1.36,9.83,2.35,19.66,4.68,29.51,6.93,1.65,.38,2.04,1.48,2.38,2.79,4.33,16.61-8.19,32.72-26.09,32.67Z"/>
    <path class="cls-1" d="M334.23,105.82c0,15.76-.04,31.51,.05,47.27,.01,2.03-.31,2.99-2.6,2.73-1.98-.22-4.02-.18-6.01,0-2.18,.19-2.92-.41-2.9-2.77,.13-13.37,.06-26.74,.06-40.1,0-18.14,.04-36.29-.05-54.43,0-2.09,.42-2.95,2.65-2.73,2.08,.2,4.21,.18,6.3,0,1.99-.16,2.57,.45,2.55,2.49-.1,11.46-.05,22.92-.05,34.38v13.18Z"/>
    <path class="cls-2" d="M561.92,117.53c0,11.93-.05,23.86,.05,35.79,.02,2.04-.56,2.64-2.55,2.48-2.84-.22-6.65,.91-8.29-.53-1.89-1.66-.59-5.55-.59-8.46-.05-21.48,.05-42.95-.12-64.43-.02-3.05,.9-3.75,3.64-3.45,1.89,.21,3.83,.18,5.72,0,1.83-.17,2.19,.5,2.18,2.22-.08,12.12-.04,24.24-.04,36.37Z"/>
    <path class="cls-1" d="M561.92,62.52q0,6.73-6.74,6.73-4.68,0-4.68-4.55c0-2.28,.1-4.56-.03-6.83-.09-1.57,.53-1.93,1.96-1.88,2.47,.09,4.95,.17,7.41-.02,1.91-.14,2.26,.64,2.11,2.28-.13,1.41-.03,2.85-.03,4.27Z"/>
  </g>
</svg>